<?xml version="1.0" encoding="UTF-8"?>
<svg id="Capa_1" data-name="Capa 1" xmlns="http://www.w3.org/2000/svg" viewBox="0 0 100 73">
  <defs>
    <style>
      .cls-1 {
        fill-rule: evenodd;
      }
    </style>
  </defs>
  <path class="cls-1" d="M87.47,29.85H12.52c-3.65,0-6.61,2.96-6.61,6.61s2.96,6.61,6.61,6.61h74.95c3.65,0,6.61-2.96,6.61-6.61s-2.96-6.61-6.61-6.61ZM87.47,56.31H12.52c-3.65,0-6.61,2.96-6.61,6.61s2.96,6.61,6.61,6.61h74.95c3.65,0,6.61-2.96,6.61-6.61s-2.96-6.61-6.61-6.61ZM12.53,16.63h74.95c3.65,0,6.61-2.96,6.61-6.61s-2.96-6.61-6.61-6.61H12.53c-3.65,0-6.61,2.96-6.61,6.61,0,3.65,2.96,6.61,6.61,6.61Z"/>
</svg>